
<svg xmlns="http://www.w3.org/2000/svg" xmlns:xlink="http://www.w3.org/1999/xlink" id="Group_115181" data-name="Group 115181" width="60" height="60" viewBox="0 0 60 60">
  <defs>
    <clipPath id="clip-path">
      <rect id="Rectangle_17139" data-name="Rectangle 17139" width="60" height="60" fill="none"/>
    </clipPath>
  </defs>
  <g id="Group_115180" data-name="Group 115180" clip-path="url(#clip-path)">
    <path id="Path_78636" data-name="Path 78636" d="M60,30A30,30,0,1,1,30,0,30,30,0,0,1,60,30"/>
    <path id="Path_78637" data-name="Path 78637" d="M28.945,12.06V10.805a18.882,18.882,0,0,0,0,37.763V47.314a17.627,17.627,0,0,1,0-35.254" fill="#1ebbbd"/>
    <path id="Path_78638" data-name="Path 78638" d="M22.355,14.71l-.506-1.151a17.622,17.622,0,0,0,14.194,32.26l-.506-1.151A16.365,16.365,0,0,1,22.355,14.71" fill="#7eac42"/>
    <path id="Path_78639" data-name="Path 78639" d="M36.5,16.6l.626-1.084A16.364,16.364,0,1,0,20.763,43.858l.628-1.087A15.11,15.11,0,0,1,36.5,16.6" fill="#f0b51c"/>
    <path id="Path_78640" data-name="Path 78640" d="M19.413,19.642l-.863-.909A15.1,15.1,0,1,0,39.343,40.644l-.866-.913A13.847,13.847,0,0,1,19.413,19.642" fill="#e55a25"/>
    <path id="Path_78641" data-name="Path 78641" d="M31.669,17.4l.273-1.229a13.846,13.846,0,0,0-5.994,27.036l.272-1.229h0A12.587,12.587,0,1,1,31.666,17.4Z" fill="#b52a80"/>
    <path id="Path_78642" data-name="Path 78642" d="M38.191,31.6h3.188a12.806,12.806,0,0,0,.132-1.353l-3.32.016Z" fill="#fff"/>
    <path id="Path_78643" data-name="Path 78643" d="M38.191,27.729v1.292L41.505,29a12.762,12.762,0,0,0-.133-1.276Z" fill="#fff"/>
    <path id="Path_78644" data-name="Path 78644" d="M36.8,32.849V26.483h4.312a12.587,12.587,0,1,0,.011,6.366Z" fill="#fff"/>
    <path id="Path_78645" data-name="Path 78645" d="M43.152,31.979l.689-.806a2.42,2.42,0,0,0,1.631.761,1.116,1.116,0,0,0,1.26-1.1v-.018c0-.643-.544-1.051-1.314-1.051a2.711,2.711,0,0,0-1.169.281l-.671-.444.181-3.109h3.788v.988H44.72l-.1,1.486a2.712,2.712,0,0,1,1.006-.181,1.956,1.956,0,0,1,2.2,1.994V30.8a2.127,2.127,0,0,1-2.347,2.148,3.251,3.251,0,0,1-2.329-.97" fill="#fff"/>
    <path id="Path_78646" data-name="Path 78646" d="M35.114,27.729H31.658v1.291h3.456v1.246H31.658V31.6h3.456V32.85H30.267V26.484h4.847Z"/>
    <path id="Path_78647" data-name="Path 78647" d="M28.8,27.548l-3.5,4.074h3.5V32.85H23.5V31.786L27,27.712H23.609V26.484H28.8Z"/>
    <path id="Path_78648" data-name="Path 78648" d="M41.506,29H41.46l-3.269.016V27.73h3.182a12.45,12.45,0,0,0-.26-1.246H36.8V32.85h4.323a12.558,12.558,0,0,0,.256-1.246H38.191V30.267l3.276-.016h.045q.012-.281.012-.564c0-.228-.006-.456-.018-.682"/>
  </g>
</svg>